<svg width="34" height="34" viewBox="0 0 30 30" fill="none" xmlns="http://www.w3.org/2000/svg">
<path d="M19.8333 11.6667H8.16667V14.0001H19.8333V11.6667ZM22.1667 3.50008H21V1.16675H18.6667V3.50008H9.33333V1.16675H7V3.50008H5.83333C4.53833 3.50008 3.51167 4.55008 3.51167 5.83342L3.5 22.1667C3.5 22.7856 3.74583 23.3791 4.18342 23.8167C4.621 24.2542 5.21449 24.5001 5.83333 24.5001H22.1667C23.45 24.5001 24.5 23.4501 24.5 22.1667V5.83342C24.5 4.55008 23.45 3.50008 22.1667 3.50008ZM22.1667 22.1667H5.83333V9.33342H22.1667V22.1667ZM16.3333 16.3334H8.16667V18.6667H16.3333V16.3334Z" fill="#5A2D00"/>
</svg>
