<svg width="23" height="25" viewBox="0 0 23 25" fill="none" xmlns="http://www.w3.org/2000/svg">
<rect x="1" y="7" width="21" height="16" fill="white"/>
<path d="M17.8889 11.25H5.11111V13.75H17.8889V11.25ZM20.4444 2.5H19.1667V0H16.6111V2.5H6.38889V0H3.83333V2.5H2.55556C1.13722 2.5 0.0127778 3.625 0.0127778 5L0 22.5C0 23.163 0.269245 23.7989 0.748505 24.2678C1.22776 24.7366 1.87778 25 2.55556 25H20.4444C21.85 25 23 23.875 23 22.5V5C23 3.625 21.85 2.5 20.4444 2.5ZM20.4444 22.5H2.55556V8.75H20.4444V22.5ZM14.0556 16.25H5.11111V18.75H14.0556V16.25Z" fill="#5A2D00"/>
</svg>
