<svg width="23" height="25" viewBox="0 0 23 25" fill="none" xmlns="http://www.w3.org/2000/svg">
<rect x="7.15527" y="12" width="9.19999" height="11" fill="white"/>
<path d="M2.55555 25.001H20.4444C21.1222 25.001 21.7722 24.7376 22.2515 24.2688C22.7307 23.7999 23 23.164 23 22.501V11.251C23.001 11.0865 22.9687 10.9234 22.9051 10.7711C22.8415 10.6188 22.7478 10.4803 22.6294 10.3635L12.4072 0.363491C12.1678 0.130677 11.8439 0 11.5064 0C11.1688 0 10.845 0.130677 10.6055 0.363491L0.383333 10.3635C0.262598 10.4793 0.166548 10.6173 0.100747 10.7697C0.0349455 10.922 0.000701819 11.0856 0 11.251V22.501C0 23.164 0.269245 23.7999 0.748504 24.2688C1.22776 24.7376 1.87778 25.001 2.55555 25.001ZM8.94444 22.501V16.251H14.0555V22.501H8.94444ZM2.55555 11.7635L11.5 3.01349L20.4444 11.7635V22.501H16.6111V16.251C16.6111 15.5879 16.3419 14.9521 15.8626 14.4832C15.3833 14.0144 14.7333 13.751 14.0555 13.751H8.94444C8.26666 13.751 7.61665 14.0144 7.13739 14.4832C6.65813 14.9521 6.38888 15.5879 6.38888 16.251V22.501H2.55555V11.7635Z" fill="#5A2D00"/>
<rect x="1.27734" y="10.501" width="6.13333" height="13" fill="#5A2D00"/>
<rect width="7.1903" height="13.1482" transform="matrix(0.707709 0.706504 -0.721882 0.692016 11.791 2.50098)" fill="#5A2D00"/>
<rect width="7.2502" height="14.1273" transform="matrix(-0.999846 0.0175347 -0.0183224 -0.999832 22.0732 24.4988)" fill="#5A2D00"/>
<rect width="6.45468" height="14.4411" transform="matrix(-0.00366505 -0.999993 0.999994 -0.00350744 5.39062 14.2024)" fill="#5A2D00"/>
<rect x="1.27734" y="10.501" width="6.13333" height="13" fill="#5A2D00"/>
</svg>
