<svg width="29" height="28" viewBox="0 0 29 28" fill="none" xmlns="http://www.w3.org/2000/svg">
<path d="M6.8062 15.965L14.8241 21.6188L3.03539 25.0222L6.8062 15.965Z" fill="white"/>
<path d="M7.61328 12C12.5838 12 16.6133 16.0294 16.6133 21C11.6427 21 7.61328 16.9706 7.61328 12Z" fill="white"/>
<path d="M7.36328 12.625L2.61328 26L15.9883 21.2625M5.11328 2.25H5.12578M27.6133 8.5H27.6258M18.8633 1H18.8758M27.6133 23.5H27.6258M27.6133 1L24.8133 1.9375C24.0163 2.20299 23.3362 2.73705 22.8893 3.4484C22.4424 4.15976 22.2565 5.00424 22.3633 5.8375V5.8375C22.4883 6.9125 21.6508 7.875 20.5508 7.875H20.0758C19.0008 7.875 18.0758 8.625 17.8758 9.675L17.6133 11M27.6133 14.75L26.5883 14.3375C25.5133 13.9125 24.3133 14.5875 24.1133 15.725C23.9758 16.6 23.2133 17.25 22.3258 17.25H21.3633M13.8633 1L14.2758 2.025C14.7008 3.1 14.0258 4.3 12.8883 4.5C12.0133 4.625 11.3633 5.4 11.3633 6.2875V7.25" stroke="#5A2D00" stroke-width="2" stroke-linecap="round" stroke-linejoin="round"/>
<path d="M13.8629 14.75C16.2754 17.1625 17.4004 19.9625 16.3629 21C15.3254 22.0375 12.5254 20.9125 10.1129 18.5C7.70044 16.0875 6.57544 13.2875 7.61294 12.25C8.65044 11.2125 11.4504 12.3375 13.8629 14.75Z" stroke="#5A2D00" stroke-width="2" stroke-linecap="round" stroke-linejoin="round"/>
</svg>
