<svg width="25" height="25" viewBox="0 0 30 30" fill="none" xmlns="http://www.w3.org/2000/svg">
<path d="M6.03906 22.68C6.03906 14.9038 12.3429 8.59998 20.1191 8.59998C20.1191 16.3761 13.8152 22.68 6.03906 22.68Z" fill="white"/>
<path d="M13.0086 11.1188C13.6748 6.19309 18.2079 2.74008 23.1336 3.40628L25.2742 3.69579L24.9949 5.76131C24.1688 11.8692 18.5476 16.151 12.4397 15.3249L13.0086 11.1188Z" fill="white"/>
<path d="M5.46375 24C5.53875 24 5.61375 23.9925 5.68875 23.9813L11.9963 22.875C12.0712 22.86 12.1425 22.8263 12.195 22.77L28.0912 6.87375C28.126 6.83906 28.1536 6.79785 28.1724 6.75248C28.1912 6.70712 28.2009 6.65849 28.2009 6.60938C28.2009 6.56026 28.1912 6.51163 28.1724 6.46627C28.1536 6.4209 28.126 6.37969 28.0912 6.345L21.8588 0.10875C21.7875 0.0375001 21.6938 0 21.5925 0C21.4913 0 21.3975 0.0375001 21.3263 0.10875L5.43 16.005C5.37375 16.0613 5.34 16.1287 5.325 16.2038L4.21875 22.5112C4.18227 22.7121 4.1953 22.9189 4.25673 23.1136C4.31815 23.3083 4.4261 23.4851 4.57125 23.6287C4.81875 23.8687 5.13 24 5.46375 24ZM7.99125 17.46L21.5925 3.8625L24.3412 6.61125L10.74 20.2088L7.40625 20.7975L7.99125 17.46ZM28.8 27.15H1.2C0.53625 27.15 0 27.6863 0 28.35V29.7C0 29.865 0.135 30 0.3 30H29.7C29.865 30 30 29.865 30 29.7V28.35C30 27.6863 29.4638 27.15 28.8 27.15Z" fill="#5A2D00"/>
</svg>
