<svg width="24" height="28" viewBox="0 0 24 28" fill="none" xmlns="http://www.w3.org/2000/svg">
<path d="M22.0819 18.8245C21.6075 17.3845 21.3651 15.8782 21.3638 14.362V10.6158C21.3983 8.24202 20.5511 5.9398 18.9862 4.15455C17.4267 2.36647 15.2622 1.21678 12.9075 0.925796C11.6063 0.790796 10.2825 0.925796 9.02625 1.35142C7.77 1.75455 6.62625 2.42767 5.6625 3.3258C4.69394 4.20076 3.92196 5.27118 3.3975 6.46642C2.87043 7.6612 2.59533 8.95181 2.58937 10.2577V14.3827C2.58663 15.8926 2.34424 17.3925 1.87125 18.8264L0.75 22.1433L1.64813 23.377H8.22C8.22 24.3633 8.62313 25.327 9.31875 26.0245C10.0125 26.7183 10.9781 27.1233 11.9662 27.1233C12.9525 27.1233 13.9162 26.7202 14.6119 26.0245C15.3075 25.3289 15.7125 24.3633 15.7125 23.377H22.2844L23.1806 22.1433L22.0819 18.8245ZM13.2881 24.7252C13.1156 24.9011 12.91 25.0412 12.6832 25.1375C12.4563 25.2337 12.2127 25.2841 11.9662 25.2858C11.7194 25.2841 11.4753 25.2335 11.2481 25.137C11.0209 25.0404 10.8151 24.8998 10.6425 24.7233C10.4662 24.5509 10.3257 24.3454 10.2292 24.1185C10.1327 23.8917 10.082 23.648 10.08 23.4014H13.8281C13.8359 23.6474 13.7921 23.8923 13.6994 24.1203C13.6067 24.3484 13.4672 24.5544 13.29 24.7252H13.2881ZM2.9475 21.5189L3.64313 19.4302C4.18559 17.8029 4.46596 16.0998 4.47375 14.3845V10.2577C4.47375 9.20205 4.69875 8.1708 5.12438 7.22767C5.55 6.26392 6.15562 5.4108 6.94125 4.71517C7.72688 3.99892 8.6475 3.45892 9.63375 3.1458C10.6425 2.8083 11.6962 2.6958 12.7275 2.8083C14.6175 3.05682 16.3504 3.99098 17.5969 5.4333C18.8437 6.8774 19.514 8.73072 19.4794 10.6383V14.407C19.4794 16.1114 19.7494 17.8158 20.31 19.4527L21.0056 21.5395H2.94938V21.517L2.9475 21.5189Z" fill="black"/>
</svg>
