<svg width="26" height="30" viewBox="0 0 26 30" fill="none" xmlns="http://www.w3.org/2000/svg">
<path d="M13 0C11.5716 0 10.1752 0.419563 8.98755 1.20563C7.79986 1.9917 6.87417 3.10897 6.32754 4.41616C5.7809 5.72335 5.63788 7.16174 5.91655 8.54944C6.19522 9.93714 6.88307 11.2118 7.89312 12.2123C8.90316 13.2128 10.19 13.8941 11.591 14.1701C12.992 14.4462 14.4441 14.3045 15.7638 13.7631C17.0835 13.2216 18.2115 12.3047 19.0051 11.1282C19.7986 9.9518 20.2222 8.56869 20.2222 7.1538C20.2222 5.25649 19.4613 3.4369 18.1069 2.0953C16.7525 0.753702 14.9155 0 13 0ZM13 11.4461C12.1429 11.4461 11.3051 11.1943 10.5925 10.7227C9.87992 10.2511 9.3245 9.5807 8.99652 8.79639C8.66854 8.01207 8.58273 7.14904 8.74993 6.31642C8.91713 5.4838 9.32984 4.71899 9.93587 4.1187C10.5419 3.51841 11.314 3.10961 12.1546 2.944C12.9952 2.77838 13.8665 2.86338 14.6583 3.18825C15.4501 3.51312 16.1269 4.06328 16.603 4.76914C17.0792 5.475 17.3333 6.30487 17.3333 7.1538C17.3333 8.29218 16.8768 9.38394 16.0641 10.1889C15.2515 10.9939 14.1493 11.4461 13 11.4461ZM26 27.1844V25.7537C26 23.0975 24.9347 20.55 23.0385 18.6718C21.1423 16.7935 18.5705 15.7384 15.8889 15.7384H10.1111C7.42948 15.7384 4.85768 16.7935 2.96148 18.6718C1.06527 20.55 0 23.0975 0 25.7537V27.1844H2.88889V25.7537C2.88889 23.8564 3.6498 22.0368 5.00423 20.6952C6.35866 19.3536 8.19566 18.5999 10.1111 18.5999H15.8889C17.8043 18.5999 19.6413 19.3536 20.9958 20.6952C22.3502 22.0368 23.1111 23.8564 23.1111 25.7537V27.1844H26Z" fill="black"/>
<rect y="27.1387" width="26" height="2.86152" fill="black"/>
</svg>
