<svg width="29" height="30" viewBox="0 0 29 30" fill="none" xmlns="http://www.w3.org/2000/svg">
<path d="M7.93742 7.84375V7.08031C7.93742 3.28719 10.8599 0.1875 14.4999 0.1875C18.1399 0.1875 21.0624 3.28719 21.0624 7.08031V7.84594H25.5424C25.8134 7.8462 26.0746 7.94704 26.2754 8.1289C26.4763 8.31077 26.6025 8.56071 26.6296 8.83031L28.5984 28.5178C28.6136 28.6698 28.5969 28.8233 28.5492 28.9685C28.5016 29.1136 28.424 29.2472 28.3216 29.3605C28.2192 29.4738 28.0941 29.5645 27.9546 29.6266C27.815 29.6886 27.6639 29.7208 27.5112 29.7209H1.48867C1.3359 29.7208 1.18486 29.6886 1.04528 29.6266C0.905691 29.5645 0.78066 29.4738 0.678237 29.3605C0.575814 29.2472 0.498271 29.1136 0.450604 28.9685C0.402937 28.8233 0.386202 28.6698 0.401479 28.5178L2.37023 8.83031C2.39732 8.56071 2.52353 8.31077 2.72439 8.1289C2.92524 7.94704 3.18646 7.8462 3.45742 7.84594H7.93742V7.84375ZM10.1249 7.84375H18.8749V7.08031C18.8749 4.46844 16.9018 2.375 14.4999 2.375C12.098 2.375 10.1249 4.46844 10.1249 7.08031V7.84594V7.84375ZM7.93742 10.0312H4.44835L2.69835 27.5312H26.3015L24.5493 10.0312H21.0624V13.3125C21.0624 13.6026 20.9472 13.8808 20.7421 14.0859C20.5369 14.291 20.2587 14.4062 19.9687 14.4062C19.6786 14.4062 19.4004 14.291 19.1953 14.0859C18.9901 13.8808 18.8749 13.6026 18.8749 13.3125V10.0312H10.1249V13.3125C10.1249 13.6026 10.0097 13.8808 9.80456 14.0859C9.59945 14.291 9.32125 14.4062 9.03117 14.4062C8.74109 14.4062 8.46289 14.291 8.25777 14.0859C8.05265 13.8808 7.93742 13.6026 7.93742 13.3125V10.0312Z" fill="black"/>
</svg>
