<svg width="25" height="24" viewBox="0 0 25 24" fill="none" xmlns="http://www.w3.org/2000/svg">
<path d="M12.0088 3C17.8078 3 22.5088 6.664 22.5088 11.185C22.5088 15.705 17.8078 19.369 12.0088 19.369C11.4314 19.3693 10.8545 19.3326 10.2818 19.259L5.87379 22.142C5.37279 22.407 5.19579 22.378 5.40179 21.729L6.29379 18.051C3.41379 16.591 1.50879 14.061 1.50879 11.185C1.50879 6.665 6.20979 3 12.0088 3ZM17.9158 11.06L19.3858 9.636C19.4706 9.54791 19.5179 9.43033 19.5178 9.30804C19.5176 9.18575 19.47 9.0683 19.385 8.98041C19.3 8.89252 19.1841 8.84107 19.0619 8.83689C18.9397 8.83271 18.8206 8.87613 18.7298 8.958L16.8018 10.824V9.282C16.8018 9.15682 16.7521 9.03676 16.6635 8.94825C16.575 8.85973 16.455 8.81 16.3298 8.81C16.2046 8.81 16.0846 8.85973 15.996 8.94825C15.9075 9.03676 15.8578 9.15682 15.8578 9.282V11.839C15.8401 11.9119 15.8401 11.9881 15.8578 12.061V13.5C15.8578 13.6252 15.9075 13.7452 15.996 13.8338C16.0846 13.9223 16.2046 13.972 16.3298 13.972C16.455 13.972 16.575 13.9223 16.6635 13.8338C16.7521 13.7452 16.8018 13.6252 16.8018 13.5V12.137L17.2288 11.724L18.6568 13.757C18.6924 13.8078 18.7377 13.851 18.7901 13.8842C18.8425 13.9175 18.9009 13.9401 18.962 13.9508C19.0231 13.9615 19.0857 13.96 19.1462 13.9465C19.2068 13.933 19.264 13.9077 19.3148 13.872C19.3655 13.8363 19.4088 13.791 19.442 13.7387C19.4753 13.6863 19.4979 13.6279 19.5086 13.5668C19.5192 13.5057 19.5178 13.4431 19.5043 13.3826C19.4907 13.322 19.4654 13.2648 19.4298 13.214L17.9158 11.059V11.06ZM14.9578 12.984H13.4978V9.297C13.4922 9.17571 13.4401 9.06123 13.3523 8.97737C13.2645 8.89351 13.1477 8.84672 13.0263 8.84672C12.9049 8.84672 12.7881 8.89351 12.7003 8.97737C12.6125 9.06123 12.5604 9.17571 12.5548 9.297V13.456C12.5548 13.716 12.7648 13.928 13.0258 13.928H14.9578C15.083 13.928 15.203 13.8783 15.2915 13.7898C15.3801 13.7012 15.4298 13.5812 15.4298 13.456C15.4298 13.3308 15.3801 13.2108 15.2915 13.1222C15.203 13.0337 15.083 12.984 14.9578 12.984ZM9.10079 11.892L9.79679 10.185L10.4348 11.892H9.10079ZM11.6238 12.38L11.6258 12.364C11.6256 12.2451 11.5802 12.1307 11.4988 12.044L10.4528 9.244C10.4089 9.11057 10.3254 8.99369 10.2134 8.90899C10.1013 8.8243 9.96612 8.7758 9.82579 8.77C9.68443 8.76938 9.54623 8.81182 9.42958 8.89167C9.31293 8.97152 9.22336 9.08499 9.17279 9.217L7.51179 13.292C7.48835 13.3494 7.47644 13.4108 7.47674 13.4728C7.47705 13.5348 7.48956 13.5961 7.51357 13.6533C7.53757 13.7104 7.5726 13.7623 7.61664 13.8059C7.66069 13.8495 7.7129 13.8841 7.77029 13.9075C7.82768 13.9309 7.88912 13.9428 7.95111 13.9425C8.0131 13.9422 8.07442 13.9297 8.13158 13.9057C8.18873 13.8817 8.2406 13.8467 8.28421 13.8026C8.32783 13.7586 8.36235 13.7064 8.38579 13.649L8.71579 12.836H10.7858L11.0848 13.636C11.1051 13.6958 11.1372 13.7509 11.1793 13.7981C11.2213 13.8452 11.2723 13.8835 11.3294 13.9105C11.3865 13.9376 11.4484 13.9529 11.5115 13.9557C11.5746 13.9584 11.6376 13.9484 11.6967 13.9263C11.7559 13.9042 11.8101 13.8704 11.8559 13.8271C11.9018 13.7837 11.9386 13.7315 11.9639 13.6737C11.9893 13.6158 12.0028 13.5535 12.0036 13.4903C12.0045 13.4272 11.9926 13.3645 11.9688 13.306L11.6238 12.38ZM8.30179 9.302C8.30179 9.17699 8.2522 9.05709 8.1639 8.9686C8.0756 8.88011 7.9558 8.83026 7.83079 8.83H4.58579C4.46061 8.83 4.34055 8.87973 4.25203 8.96825C4.16352 9.05676 4.11379 9.17682 4.11379 9.302C4.11379 9.42718 4.16352 9.54724 4.25203 9.63575C4.34055 9.72427 4.46061 9.774 4.58579 9.774H5.74579V13.51C5.74579 13.6352 5.79552 13.7552 5.88403 13.8438C5.97255 13.9323 6.09261 13.982 6.21779 13.982C6.34297 13.982 6.46303 13.9323 6.55154 13.8438C6.64006 13.7552 6.68979 13.6352 6.68979 13.51V9.774H7.82979C7.95497 9.774 8.07503 9.72427 8.16354 9.63575C8.25206 9.54724 8.30179 9.42718 8.30179 9.302Z" fill="black"/>
<rect x="3.00879" y="7" width="17" height="8" fill="black"/>
</svg>
